<svg width="85" height="85" viewBox="0 0 85 85" fill="none" xmlns="http://www.w3.org/2000/svg">
                        <path
                            d="M42.3599 84.5901C65.5558 84.5901 84.3599 65.786 84.3599 42.5901C84.3599 19.3941 65.5558 0.590088 42.3599 0.590088C19.1639 0.590088 0.359863 19.3941 0.359863 42.5901C0.359863 65.786 19.1639 84.5901 42.3599 84.5901Z"
                            fill="url(#paint0_linear_0_1)" />
                        <path
                            d="M44.1998 51.4301H40.9097C39.7675 51.409 38.68 50.9364 37.8854 50.1155C37.0908 49.2946 36.6537 48.1924 36.6698 47.0501C36.6985 46.7211 36.8494 46.4149 37.0929 46.1917C37.3363 45.9686 37.6545 45.8449 37.9847 45.8449C38.3149 45.8449 38.6332 45.9686 38.8766 46.1917C39.12 46.4149 39.271 46.7211 39.2997 47.0501C39.2834 47.495 39.4434 47.9285 39.7449 48.2561C40.0464 48.5838 40.465 48.7793 40.9097 48.8001H44.1998C44.3692 48.7911 44.5353 48.7488 44.6884 48.6756C44.8415 48.6023 44.9787 48.4996 45.092 48.3733C45.2053 48.2469 45.2926 48.0995 45.3489 47.9393C45.4051 47.7792 45.4292 47.6095 45.4198 47.4401C45.4198 46.4901 45.1597 46.3501 44.5697 46.1401L39.2997 44.3001C38.4857 44.0818 37.7751 43.5826 37.2938 42.8908C36.8125 42.199 36.5914 41.3592 36.6698 40.5201C36.669 39.4847 37.0698 38.4894 37.7878 37.7434C38.5058 36.9974 39.4851 36.5589 40.5197 36.5201H43.8097C44.952 36.5411 46.0394 37.0138 46.8341 37.8347C47.6287 38.6555 48.0658 39.7577 48.0497 40.9001C48.021 41.229 47.87 41.5353 47.6266 41.7584C47.3832 41.9815 47.0649 42.1053 46.7347 42.1053C46.4045 42.1053 46.0863 41.9815 45.8429 41.7584C45.5994 41.5353 45.4485 41.229 45.4198 40.9001C45.4291 40.6794 45.3949 40.4591 45.319 40.2516C45.2432 40.0442 45.1272 39.8538 44.9776 39.6912C44.8281 39.5287 44.648 39.3972 44.4476 39.3044C44.2472 39.2115 44.0304 39.1591 43.8097 39.1501H40.5197C40.3502 39.159 40.1842 39.2013 40.0311 39.2746C39.878 39.3478 39.7408 39.4505 39.6275 39.5769C39.5142 39.7032 39.4269 39.8507 39.3706 40.0108C39.3144 40.171 39.2903 40.3406 39.2997 40.5101C39.2997 41.4601 39.5597 41.6001 40.1597 41.8101L45.4198 43.6501C46.2338 43.8683 46.9443 44.3676 47.4257 45.0594C47.907 45.7512 48.1281 46.5909 48.0497 47.4301C48.0685 48.4707 47.6737 49.4763 46.9519 50.2262C46.2301 50.9761 45.2404 51.4091 44.1998 51.4301Z"
                            fill="#00AC4F" />
                        <path
                            d="M42.3598 53.1801C42.0115 53.1775 41.6783 53.0372 41.4329 52.79C41.1875 52.5427 41.0498 52.2085 41.0498 51.8601V36.1101C41.0498 35.7627 41.1878 35.4295 41.4335 35.1838C41.6792 34.9381 42.0124 34.8001 42.3598 34.8001C42.7072 34.8001 43.0405 34.9381 43.2861 35.1838C43.5318 35.4295 43.6698 35.7627 43.6698 36.1101V51.8601C43.6698 52.2085 43.5321 52.5427 43.2867 52.79C43.0414 53.0372 42.7082 53.1775 42.3598 53.1801Z"
                            fill="#00AC4F" />
                        <path
                            d="M42.3598 62.8001C37.3711 62.8001 32.5867 60.8183 29.0591 57.2907C25.5316 53.7632 23.5498 48.9788 23.5498 43.9901C23.5498 39.0013 25.5316 34.2169 29.0591 30.6894C32.5867 27.1618 37.3711 25.1801 42.3598 25.1801C42.7072 25.1801 43.0405 25.3181 43.2861 25.5638C43.5318 25.8094 43.6698 26.1426 43.6698 26.4901C43.6698 26.8375 43.5318 27.1707 43.2861 27.4164C43.0405 27.662 42.7072 27.8001 42.3598 27.8001C39.1581 27.8001 36.0284 28.7493 33.3662 30.5279C30.704 32.3064 28.6288 34.8344 27.4032 37.7921C26.1775 40.7499 25.8563 44.0046 26.4802 47.1449C27.104 50.2852 28.645 53.17 30.9082 55.4346C33.1714 57.6992 36.0553 59.2419 39.1952 59.8678C42.3351 60.4936 45.59 60.1744 48.5485 58.9505C51.507 57.7267 54.0363 55.6531 55.8164 52.992C57.5966 50.3309 58.5478 47.2017 58.5498 44.0001C58.5498 43.6526 58.6878 43.3194 58.9335 43.0737C59.1792 42.8281 59.5124 42.6901 59.8598 42.6901C60.2072 42.6901 60.5405 42.8281 60.7861 43.0737C61.0318 43.3194 61.1698 43.6526 61.1698 44.0001C61.1645 48.9862 59.1808 53.7665 55.6541 57.2914C52.1274 60.8162 47.346 62.7974 42.3598 62.8001Z"
                            fill="#00AC4F" />
                        <path
                            d="M58.1098 36.5501H51.1098C50.7624 36.5501 50.4292 36.412 50.1835 36.1664C49.9378 35.9207 49.7998 35.5875 49.7998 35.2401V28.2401C49.7998 27.8926 49.9378 27.5594 50.1835 27.3138C50.4292 27.0681 50.7624 26.9301 51.1098 26.9301C51.4572 26.9301 51.7905 27.0681 52.0361 27.3138C52.2818 27.5594 52.4198 27.8926 52.4198 28.2401V33.9301H58.1098C58.4572 33.9301 58.7905 34.0681 59.0361 34.3138C59.2818 34.5594 59.4198 34.8926 59.4198 35.2401C59.4198 35.5875 59.2818 35.9207 59.0361 36.1664C58.7905 36.412 58.4572 36.5501 58.1098 36.5501Z"
                            fill="#00AC4F" />
                        <path
                            d="M51.1101 36.5501C50.9377 36.5511 50.7668 36.518 50.6072 36.4528C50.4476 36.3876 50.3025 36.2915 50.1801 36.1701C49.9346 35.9228 49.7969 35.5885 49.7969 35.2401C49.7969 34.8917 49.9346 34.5573 50.1801 34.3101L58.9301 25.5601C59.183 25.347 59.5066 25.2366 59.8369 25.2506C60.1673 25.2647 60.4803 25.4023 60.7141 25.6361C60.9479 25.8699 61.0855 26.1829 61.0995 26.5133C61.1136 26.8436 61.0032 27.1672 60.7901 27.4201L52.0001 36.1701C51.7617 36.404 51.444 36.5397 51.1101 36.5501Z"
                            fill="#00AC4F" />
                        <defs>
                            <linearGradient id="paint0_linear_0_1" x1="60.7599" y1="-4.89991" x2="28.2099" y2="79.1001"
                                gradientUnits="userSpaceOnUse">
                                <stop stop-color="#D3FFE7" />
                                <stop offset="1" stop-color="#EFFFF6" />
                            </linearGradient>
                        </defs>
                    </svg>