<svg width="22" height="22" viewBox="0 0 22 22" fill="none" xmlns="http://www.w3.org/2000/svg">
<path d="M8 21.0001H14C19 21.0001 21 19.0001 21 14.0001V8.00012C21 3.00012 19 1.00012 14 1.00012H8C3 1.00012 1 3.00012 1 8.00012V14.0001C1 19.0001 3 21.0001 8 21.0001Z" stroke="white" stroke-width="1.5" stroke-linecap="round" stroke-linejoin="round"/>
<path d="M15.2802 12.6101C14.7411 13.1425 14.0666 13.5171 13.3297 13.6934C12.5929 13.8697 11.8218 13.8409 11.1002 13.6101L8.5102 16.1901C8.40047 16.2907 8.27061 16.3667 8.12924 16.4133C7.98787 16.4598 7.83821 16.4758 7.6902 16.4601L6.49021 16.3001C6.28526 16.2656 6.09616 16.1681 5.94921 16.0211C5.80225 15.8742 5.70473 15.6851 5.6702 15.4801L5.5102 14.2801C5.49872 14.1324 5.51667 13.9838 5.56302 13.843C5.60937 13.7023 5.68319 13.5721 5.7802 13.4601L8.36021 10.8801C8.14137 10.1765 8.11336 9.42735 8.27904 8.70935C8.44471 7.99134 8.79813 7.33024 9.30314 6.79363C9.80816 6.25703 10.4466 5.86421 11.1533 5.65533C11.8599 5.44645 12.6094 5.429 13.325 5.60479C14.0406 5.78059 14.6966 6.14331 15.2261 6.65585C15.7555 7.16839 16.1392 7.81235 16.3381 8.52188C16.537 9.2314 16.5439 9.98101 16.358 10.6941C16.1721 11.4071 15.8002 12.058 15.2802 12.5801V12.6101Z" stroke="white" stroke-width="1.5" stroke-linecap="round" stroke-linejoin="round"/>
<path d="M9.4501 15.2801L8.6001 14.4201" stroke="white" stroke-width="1.5" stroke-linecap="round" stroke-linejoin="round"/>
</svg>
