<svg width="85" height="85" viewBox="0 0 85 85" fill="none" xmlns="http://www.w3.org/2000/svg">
                        <path d="M42.3799 84.5901C65.5758 84.5901 84.3799 65.786 84.3799 42.5901C84.3799 19.3941 65.5758 0.590088 42.3799 0.590088C19.1839 0.590088 0.379883 19.3941 0.379883 42.5901C0.379883 65.786 19.1839 84.5901 42.3799 84.5901Z" fill="url(#paint0_linear_0_1)"/>
                        <path d="M50.26 36.6901C49.9116 36.6901 49.5773 36.5524 49.3301 36.3071C49.0828 36.0617 48.9426 35.7285 48.9399 35.3801V33.0001C48.9386 32.0852 48.7467 31.1805 48.3766 30.3438C48.0064 29.5071 47.4662 28.7566 46.79 28.1401C46.1123 27.5208 45.3107 27.0525 44.4384 26.7663C43.566 26.4801 42.6429 26.3826 41.73 26.4801C38.58 26.7701 35.8199 29.9901 35.8199 33.3501V35.0001C35.7912 35.3291 35.6403 35.6353 35.3969 35.8585C35.1534 36.0816 34.8352 36.2053 34.505 36.2053C34.1748 36.2053 33.8566 36.0816 33.6132 35.8585C33.3697 35.6353 33.2187 35.3291 33.1899 35.0001V33.3001C33.1899 28.5901 36.99 24.2501 41.49 23.8101C42.7675 23.6815 44.0578 23.8243 45.2762 24.2293C46.4947 24.6343 47.6138 25.2923 48.5601 26.1601C49.5041 27.0237 50.2582 28.0742 50.7747 29.2448C51.2911 30.4154 51.5586 31.6806 51.5601 32.9601V35.3801C51.5575 35.725 51.42 36.0552 51.177 36.3001C50.934 36.5449 50.6049 36.6849 50.26 36.6901Z" fill="#DA001A"/>
                        <path d="M47.63 61.4001H37.13C29.04 61.4001 27.54 57.6401 27.13 53.9801L25.82 43.5001C25.63 41.6101 25.5601 38.9001 27.4001 36.8701C28.9701 35.1201 31.5801 34.2801 35.4001 34.2801H49.4001C53.2001 34.2801 55.8001 35.1301 57.4001 36.8701C59.2201 38.8701 59.17 41.6101 58.98 43.4601L57.6 54.0001C57.22 57.6401 55.71 61.4001 47.63 61.4001ZM35.38 36.9001C32.38 36.9001 30.38 37.4801 29.38 38.6301C28.52 39.6301 28.24 41.0301 28.47 43.2001L29.7801 53.6801C30.0801 56.4801 30.8501 58.7901 37.1501 58.7901H47.6501C53.9501 58.7901 54.7201 56.5001 55.0201 53.7201L56.33 43.2001C56.56 41.0701 56.3301 39.6101 55.4201 38.6501C54.4201 37.4801 52.3601 36.9001 49.4201 36.9001H35.38Z" fill="#DA001A"/>
                        <path d="M48.3696 44.6001C48.0227 44.6041 47.6823 44.5048 47.3919 44.315C47.1015 44.1251 46.8741 43.8532 46.7386 43.5338C46.6031 43.2144 46.5656 42.8619 46.6308 42.5211C46.6961 42.1803 46.8612 41.8667 47.1051 41.6199C47.349 41.3732 47.6608 41.2045 48.0008 41.1353C48.3408 41.0662 48.6937 41.0996 49.0146 41.2315C49.3356 41.3633 49.61 41.5876 49.8032 41.8758C49.9964 42.164 50.0996 42.5031 50.0996 42.8501C50.1009 43.0786 50.0573 43.3051 49.971 43.5167C49.8848 43.7283 49.7577 43.9209 49.597 44.0834C49.4364 44.2459 49.2454 44.3752 49.0348 44.4638C48.8242 44.5525 48.5981 44.5988 48.3696 44.6001Z" fill="#DA001A"/>
                        <path d="M36.1196 44.6001C35.7727 44.6041 35.4323 44.5048 35.1419 44.315C34.8515 44.1251 34.6241 43.8532 34.4886 43.5338C34.3531 43.2144 34.3156 42.8619 34.3808 42.5211C34.4461 42.1803 34.6112 41.8667 34.8551 41.6199C35.099 41.3732 35.4108 41.2045 35.7508 41.1353C36.0908 41.0662 36.4437 41.0996 36.7646 41.2315C37.0856 41.3633 37.36 41.5876 37.5532 41.8758C37.7464 42.164 37.8496 42.5031 37.8496 42.8501C37.8509 43.0786 37.8073 43.3051 37.721 43.5167C37.6348 43.7283 37.5077 43.9209 37.347 44.0834C37.1864 44.2459 36.9954 44.3752 36.7848 44.4638C36.5742 44.5525 36.3481 44.5988 36.1196 44.6001Z" fill="#DA001A"/>
                        <defs>
                        <linearGradient id="paint0_linear_0_1" x1="60.7799" y1="-4.89991" x2="28.2299" y2="79.1001" gradientUnits="userSpaceOnUse">
                        <stop stop-color="#FFA3CF"/>
                        <stop offset="1" stop-color="#FFD5F3"/>
                        </linearGradient>
                        </defs>
</svg>  