<svg width="85" height="85" viewBox="0 0 85 85" fill="none" xmlns="http://www.w3.org/2000/svg">
                        <path
                            d="M42.8701 84.5901C66.0661 84.5901 84.8701 65.786 84.8701 42.5901C84.8701 19.3941 66.0661 0.590088 42.8701 0.590088C19.6742 0.590088 0.870117 19.3941 0.870117 42.5901C0.870117 65.786 19.6742 84.5901 42.8701 84.5901Z"
                            fill="url(#paint0_linear_0_1)" />
                        <path
                            d="M34.4199 62.4001C30.2499 62.4001 26.84 59.4001 26.84 55.6501V52.0801C26.8241 51.8978 26.8462 51.7141 26.905 51.5408C26.9639 51.3675 27.0582 51.2084 27.1818 51.0734C27.3055 50.9385 27.4558 50.8308 27.6234 50.7571C27.7909 50.6834 27.9719 50.6453 28.155 50.6453C28.338 50.6453 28.519 50.6834 28.6865 50.7571C28.854 50.8308 29.0044 50.9385 29.1281 51.0734C29.2517 51.2084 29.346 51.3675 29.4048 51.5408C29.4637 51.7141 29.4858 51.8978 29.4699 52.0801C29.4699 54.2601 31.5799 55.9101 34.4199 55.9101C37.2599 55.9101 39.4199 54.2601 39.4199 52.0801C39.404 51.8978 39.4262 51.7141 39.485 51.5408C39.5439 51.3675 39.6382 51.2084 39.7618 51.0734C39.8855 50.9385 40.0358 50.8308 40.2034 50.7571C40.3709 50.6834 40.5519 50.6453 40.7349 50.6453C40.9179 50.6453 41.099 50.6834 41.2665 50.7571C41.434 50.8308 41.5844 50.9385 41.7081 51.0734C41.8317 51.2084 41.9259 51.3675 41.9848 51.5408C42.0437 51.7141 42.0658 51.8978 42.0499 52.0801V55.6501C41.9999 59.3701 38.5999 62.4001 34.4199 62.4001ZM29.9199 57.4001C30.3831 58.1708 31.0455 58.8024 31.8375 59.2283C32.6294 59.6542 33.5216 59.8587 34.4199 59.8201C35.3167 59.8492 36.2053 59.6406 36.9956 59.2157C37.7859 58.7907 38.4497 58.1643 38.9199 57.4001C37.5485 58.1804 35.9978 58.5906 34.4199 58.5906C32.8421 58.5906 31.2913 58.1804 29.9199 57.4001V57.4001Z"
                            fill="#0F5FC2" />
                        <path
                            d="M34.4198 53.7401C33.1036 53.7877 31.7969 53.5007 30.6217 52.9061C29.4464 52.3115 28.4412 51.4287 27.6998 50.3401C27.1358 49.4192 26.8381 48.36 26.8399 47.2801C26.847 46.3579 27.0546 45.4482 27.4482 44.6142C27.8419 43.7801 28.4123 43.0417 29.1198 42.4501C30.6199 41.25 32.4838 40.5962 34.4049 40.5962C36.3259 40.5962 38.1897 41.25 39.6898 42.4501C40.3976 43.0465 40.9686 43.7884 41.3638 44.6254C41.759 45.4623 41.969 46.3746 41.9798 47.3001C41.9816 48.38 41.6839 49.4392 41.1198 50.3601C40.382 51.4461 39.3798 52.3263 38.2075 52.9177C37.0353 53.509 35.7317 53.7921 34.4198 53.7401V53.7401ZM34.4198 43.1501C33.1142 43.1311 31.8459 43.5858 30.8498 44.4301C30.4263 44.7762 30.0835 45.2105 29.8452 45.7027C29.6068 46.195 29.4787 46.7333 29.4698 47.2801C29.4647 47.8795 29.6275 48.4684 29.9398 48.9801C30.4778 49.6479 31.1585 50.1867 31.9321 50.5569C32.7056 50.927 33.5523 51.1192 34.4098 51.1192C35.2673 51.1192 36.114 50.927 36.8876 50.5569C37.6611 50.1867 38.3419 49.6479 38.8798 48.9801C39.1947 48.4695 39.3577 47.8799 39.3498 47.2801C39.3391 46.7307 39.2104 46.1901 38.9722 45.6949C38.7341 45.1997 38.3922 44.7615 37.9698 44.4101C36.9788 43.5728 35.7169 43.1249 34.4198 43.1501V43.1501Z"
                            fill="#0F5FC2" />
                        <path
                            d="M34.4198 58.5501C30.0998 58.5501 26.8398 55.7701 26.8398 52.0901V47.2801C26.8398 43.5501 30.2398 40.5301 34.4198 40.5301C36.3503 40.5124 38.2233 41.1864 39.6998 42.4301C40.409 43.026 40.9814 43.7676 41.3783 44.6045C41.7752 45.4414 41.9872 46.354 41.9998 47.2801V52.0901C41.9998 55.7701 38.7398 58.5501 34.4198 58.5501ZM34.4198 43.1501C31.6898 43.1501 29.4698 45.0101 29.4698 47.2801V52.0901C29.4698 54.2801 31.5798 55.9301 34.4198 55.9301C37.2598 55.9301 39.4198 54.2801 39.4198 52.0901V47.2801C39.4091 46.7308 39.2803 46.1901 39.0422 45.6949C38.8041 45.1997 38.4622 44.7615 38.0398 44.4101C37.0219 43.572 35.7381 43.1251 34.4198 43.1501V43.1501Z"
                            fill="#0F5FC2" />
                        <path
                            d="M55.1901 48.4901C53.9324 48.5192 52.7099 48.0732 51.7665 47.241C50.8231 46.4088 50.228 45.2516 50.1001 44.0001C50.042 43.3255 50.1244 42.6463 50.342 42.0052C50.5596 41.364 50.9077 40.775 51.3644 40.2751C51.821 39.7753 52.3763 39.3755 52.9951 39.1009C53.614 38.8264 54.2831 38.6831 54.9601 38.6801H58.6201C59.4345 38.6931 60.2112 39.0252 60.7834 39.6049C61.3556 40.1846 61.6776 40.9656 61.6801 41.7801V45.3801C61.6805 46.1852 61.3677 46.9589 60.8078 47.5375C60.2479 48.116 59.4848 48.4541 58.6801 48.4801L55.1901 48.4901ZM58.5701 41.3101H55.0001C54.7079 41.3055 54.4178 41.3608 54.1478 41.4725C53.8778 41.5843 53.6335 41.7503 53.4301 41.9601C53.1838 42.1906 52.9935 42.4745 52.8739 42.79C52.7543 43.1055 52.7085 43.4442 52.7401 43.7801C52.8235 44.37 53.1217 44.9085 53.5774 45.2923C54.0332 45.6761 54.6146 45.8782 55.2101 45.8601H58.6401C58.7604 45.8549 58.8738 45.8027 58.956 45.7149C59.0383 45.627 59.0828 45.5104 59.0801 45.3901V41.7901C59.0788 41.7248 59.0645 41.6605 59.0381 41.6009C59.0116 41.5413 58.9735 41.4875 58.926 41.4428C58.8785 41.3981 58.8226 41.3633 58.7614 41.3405C58.7003 41.3177 58.6353 41.3074 58.5701 41.3101V41.3101Z"
                            fill="#0F5FC2" />
                        <path
                            d="M49.8697 59.7801H45.4997C45.3174 59.796 45.1337 59.7738 44.9604 59.715C44.7871 59.6561 44.628 59.5619 44.493 59.4382C44.3581 59.3145 44.2504 59.1642 44.1767 58.9967C44.103 58.8291 44.0649 58.6481 44.0649 58.4651C44.0649 58.2821 44.103 58.1011 44.1767 57.9335C44.2504 57.766 44.3581 57.6156 44.493 57.492C44.628 57.3683 44.7871 57.2741 44.9604 57.2152C45.1337 57.1564 45.3174 57.1342 45.4997 57.1501H49.8697C54.3897 57.1501 57.3097 54.2301 57.3097 49.7101V48.4901H55.1897C53.932 48.5193 52.7095 48.0733 51.7661 47.2411C50.8227 46.4088 50.2276 45.2516 50.0997 44.0001C50.0416 43.3255 50.124 42.6463 50.3416 42.0052C50.5592 41.3641 50.9073 40.775 51.3639 40.2752C51.8206 39.7753 52.3759 39.3755 52.9947 39.101C53.6136 38.8264 54.2827 38.6831 54.9597 38.6801H57.2897V37.4501C57.2897 33.3601 54.8897 30.5401 51.0097 30.0901C50.6258 30.0334 50.2376 30.01 49.8497 30.0201H34.0997C33.6917 30.0212 33.2843 30.0479 32.8797 30.1001C29.0297 30.5901 26.6697 33.3901 26.6697 37.4501V41.0001C26.6856 41.1824 26.6634 41.3661 26.6045 41.5394C26.5457 41.7127 26.4515 41.8718 26.3278 42.0067C26.2042 42.1417 26.0537 42.2494 25.8862 42.3231C25.7187 42.3968 25.5377 42.4349 25.3547 42.4349C25.1716 42.4349 24.9906 42.3968 24.8231 42.3231C24.6556 42.2494 24.5052 42.1417 24.3816 42.0067C24.2579 41.8718 24.1636 41.7127 24.1048 41.5394C24.0459 41.3661 24.0238 41.1824 24.0397 41.0001V37.5001C24.0397 32.1101 27.3697 28.2101 32.5297 27.5601C33.0494 27.4819 33.5741 27.4418 34.0997 27.4401H49.8497C50.3618 27.4367 50.8734 27.4735 51.3797 27.5501C56.5397 28.1401 59.9197 32.0601 59.9197 37.5501V40.0001C59.917 40.3484 59.7768 40.6816 59.5295 40.927C59.2823 41.1724 58.948 41.3101 58.5997 41.3101H54.9997C54.7075 41.3055 54.4174 41.3608 54.1474 41.4726C53.8774 41.5844 53.6331 41.7503 53.4297 41.9601C53.1846 42.1912 52.9958 42.4754 52.8779 42.791C52.76 43.1065 52.7161 43.4449 52.7497 43.7801C52.8309 44.3692 53.127 44.9075 53.5811 45.2915C54.0352 45.6755 54.6153 45.878 55.2097 45.8601H58.6597C59.008 45.8627 59.3412 46.003 59.5866 46.2502C59.832 46.4975 59.9697 46.8317 59.9697 47.1801V49.7101C59.9297 55.7301 55.8897 59.7801 49.8697 59.7801Z"
                            fill="#0F5FC2" />
                        <defs>
                            <linearGradient id="paint0_linear_0_1" x1="61.2701" y1="-4.89991" x2="28.7201" y2="79.1001"
                                gradientUnits="userSpaceOnUse">
                                <stop stop-color="#CAF1FF" />
                                <stop offset="1" stop-color="#CDF4FF" />
                            </linearGradient>
                        </defs>
</svg>